<?xml version="1.0" encoding="UTF-8" standalone="no"?>
<!DOCTYPE svg  PUBLIC '-//W3C//DTD SVG 1.1//EN'  'http://www.w3.org/Graphics/SVG/1.1/DTD/svg11.dtd'>
<svg width="855pt" xmlns="http://www.w3.org/2000/svg" viewBox="0 0 855 254" version="1.1" height="254pt">
 <g id="#25bdbeff" fill="#25bdbe">
  <path d="m247.48 0h9.92c8.98 2.31 17.06 10.23 16.73 19.96 1.79 12.34-9.93 24.01-22.12 23.14-12.66-0.39-23.5-13.77-20.26-26.25 1.56-8.07 8.19-14.19 15.73-16.85z"/>
  <path d="m54.79 16.72c1.5-2.04 5.59-2.93 6.92-0.38 0.72 4.18 0.24 8.45 0.31 12.66-0.19 9.62 0.41 19.26-0.44 28.86 16.48 0.32 32.96 0.06 49.44 0.14-0.11 9.6 0.22 19.21-0.23 28.8-16.25 0.48-32.52 0.06-48.78 0.21-0.02 19.35-0.01 38.7 0 58.04-0.17 5.73 2.97 11.15 7.29 14.72 3.62 2.78 8.33 3.6 12.78 3.93 10.11-0.28 19.79-3.8 28.9-7.95-0.07 9.39 0.22 18.8-0.02 28.19 0.34 2.4-2.33 3.2-4.04 4.04-11.44 4.38-23.66 6.85-35.92 7.1-14.06-0.19-28.84-3.85-39.26-13.81-8.81-9.03-12.32-21.9-12.76-34.23 0.02-20.01 0.02-40.02 0.01-60.03-6.33 0-12.66-0.01-18.99-0.01v-9.39c5.6-5.62 10.78-11.64 16.05-17.56 12.9-14.46 25.91-28.82 38.74-43.33z"/>
  <path d="m628.02 55.89c7.1-0.19 14.37-0.36 21.21 1.84 15.14 4.13 27.48 15.24 35.73 28.29 8.81 14.98 11.87 33 9.32 50.13-1.11 7.84-2.66 15.75-6.22 22.88-7.56 16.4-22.29 29.77-40.03 34.01-8.45 2.65-17.35 1.95-26.07 1.97-9.85-0.29-19.1-4.11-27.89-8.26-0.15 22.09-0.04 44.17-0.06 66.26-14.34-0.01-28.68-0.02-43.02 0 0.02-65.01 0.01-130.01 0.01-195.01h43c-0.01 3.81 0 7.63 0.16 11.44 3.8-2.62 7.44-5.54 11.54-7.71 7.02-3.19 14.53-5.74 22.32-5.84m-33.74 41.48c-0.57 3.85-0.18 7.76-0.28 11.63 0.01 16.27-0.03 32.54 0.03 48.8 6.59 4.21 13.86 8.46 21.95 8.2 4.57-0.08 9.33 0.44 13.67-1.35 4.49-1.75 8.73-4.42 12.03-7.95 4.06-5.18 7.06-11.28 8.26-17.77 1.51-6.53 1.06-13.28 0.93-19.92-1.04-8.21-3.06-16.85-8.64-23.24-5.61-6.73-14.71-9.47-23.19-9.73-9.11 1.21-18.04 5.01-24.76 11.33z"/>
  <path d="m773.59 58.57c8.71-3.23 18.16-2.87 27.28-2.4 21.38 2.68 39.62 18.5 48.07 37.93 3.56 7.79 4.61 16.35 6.06 24.7v11.4c-1.25 7.98-2.24 16.08-5.04 23.71-5.42 15.85-17.63 29.31-32.96 36.09-15.53 6.48-33.33 7.55-49.41 2.46-4.68-1.48-9.09-3.64-13.51-5.73-0.17 22.42-0.04 44.85-0.08 67.27h-43c-0.01-65.34 0.02-130.68-0.02-196.02 14.27 0.16 28.55-0.26 42.81 0.22 0.19 3.66 0.24 7.32 0.3 10.99 5.97-4.42 12.35-8.42 19.5-10.62m-18.33 37.69c-1.52 1.09-1.13 3.08-1.26 4.69 0.01 18.97-0.02 37.93 0.03 56.9 6.9 5.92 15.96 8.33 24.87 8.88 8.42-0.54 17.08-3.57 22.67-10.13 8.47-10.03 10.11-23.93 9.3-36.58-1.05-9.01-3.54-18.29-9.65-25.25-5.67-5.96-14.06-8.45-22.09-8.59-8.6 1.18-17.35 4.17-23.87 10.08z"/>
  <path d="m192.1 59.1c7.27-3.04 15.24-1.97 22.9-2.08 0.01 15.33-0.02 30.66 0.01 45.99-7.2 0.25-14.63-0.88-21.62 1.36-7.97 2.27-14.69 8.03-18.96 15.03-4.3 8.11-5.63 17.51-5.46 26.6 0.07 16.33 0.01 32.67 0.03 49-14 0-28 0.01-42 0v-136c12.34-0.01 24.67 0 37.01 0 0.08 10.48-0.2 20.97 0.17 31.45 5.03-13.3 14.13-26.24 27.92-31.35z"/>
  <path d="m231.99 57.99c14.01 0.01 28.01 0.01 42.02 0-0.02 45.67 0 91.34-0.01 137.01-14 0-28 0.01-42 0-0.01-45.67 0.01-91.34-0.01-137.01z"/>
  <path d="m439.1 65.09c12.01-3.38 24.33-6.57 36.91-6.12 5.69 0.12 11.48-0.46 17.09 0.85 11.05 2.16 22.23 6.62 29.68 15.4 8.43 9.82 11.82 23.04 12.24 35.75-0.03 28.35-0.02 56.69-0.01 85.03h-42.02c0.02-5.13 0.05-10.27-0.12-15.4-8.57 12.44-23.99 19.14-38.9 18.49-8.56-0.5-17.58-2.17-24.59-7.45-8.67-5.65-13.87-15.64-15.24-25.73-0.26-5.83-0.49-11.73 0.22-17.54 1.97-9.12 6.54-18.21 14.36-23.67 10.65-8.02 24.18-10.57 37.15-11.95 9.03-1.39 18.16-2.14 27.14-3.87 0.04-5.23 0.26-10.82-2.38-15.54-2.45-3.63-6.89-5.16-11.01-5.94-18.51-2.43-37.2 3.57-52.62 13.63 0.17-10.24-0.35-20.51 0.2-30.73 3.35-2.87 7.82-3.81 11.9-5.21m32.14 71.28c-4.71 1-9.98 1.77-13.53 5.33-6.15 5.22-6.93 15.3-1.97 21.55 5.2 5.94 14.06 6.91 21.28 4.75 6.25-1.77 12.49-5.93 14.45-12.42 1.56-7.11 1.7-14.42 1.5-21.67-7.29 0.42-14.48 1.72-21.73 2.46z"/>
 </g>
 <g id="#f37060ff" fill="#f37060">
  <path d="m345.66 15.58c1.87-1.07 4.26-0.45 6.35-0.71-0.01 41.06-0.01 82.11 0 123.17-0.05 4.72 2.17 9.21 5.31 12.64 2.59 2.41 5.9 3.82 9.06 5.32-19.13 0.03-38.26-0.02-57.39 0.01-0.17-23.24 0.38-46.5-0.28-69.73-6.24-0.44-12.5-0.28-18.75-0.27 0.22-3.46-0.87-7.51 1.66-10.37 3.15-4.47 7.53-7.85 10.82-12.21 11.17-12.17 21.92-24.7 33.17-36.8 3.23-3.79 6.43-7.62 10.05-11.05z"/>
  <path d="m359.3 58.3c13.22-0.68 26.47-0.12 39.71-0.3-0.01 9.67-0.01 19.34 0 29.01-13.21-0.18-26.43 0.35-39.63-0.29-0.34-9.47-0.67-18.95-0.08-28.42z"/>
  <path d="m361.02 162.9c12.77-1.45 26.26-1.02 37.95-7.17 0.08 10.36 0.02 20.73 0.03 31.1-9.4 3.72-19.19 6.65-29.24 7.86-4.21 0.42-8.38 1.54-12.63 1.18-9.02-1.15-18.38-2.01-26.51-6.45-10.68-4.85-18.72-14.76-21.57-26.1 17.3-0.83 34.65 0.04 51.97-0.42z"/>
 </g>
</svg>
